<svg width="22" height="14" viewBox="0 0 22 14" fill="none" xmlns="http://www.w3.org/2000/svg">
<path d="M11.978 14C4.46154 14 0.175824 8.7542 0 0.0112092H3.78022C3.9011 6.42274 6.67033 9.13531 8.86813 9.69576V0.0112092H12.4176V5.53723C14.5824 5.30184 16.8681 2.77982 17.6374 0H21.1758C20.8873 1.43897 20.311 2.80179 19.4828 4.00332C18.6547 5.20484 17.5925 6.21926 16.3626 6.98319C17.7351 7.67996 18.9471 8.6656 19.9189 9.87509C20.8906 11.0846 21.5999 12.4905 22 14H18.0989C17.2637 11.3435 15.1758 9.28102 12.4176 9.0008V14H11.989H11.978Z" fill="white"/>
</svg>
