<?xml version="1.0" encoding="utf-8"?><svg viewBox="0 0 22 20" xmlns="http://www.w3.org/2000/svg" xmlns:xlink="http://www.w3.org/1999/xlink"><style>:root>svg{display:none}:root>svg:target{display:block}</style><svg fill="none" viewBox="0 0 12 20" id="od" xmlns="http://www.w3.org/2000/svg"><path fill-rule="evenodd" clip-rule="evenodd" d="M10.876 5.47a4.854 4.854 0 01-4.845 4.846c-2.698 0-4.874-2.177-4.874-4.846S3.333.625 6.03.625a4.854 4.854 0 014.845 4.845zm-2.843 0c0-1.102-.9-2.002-2.002-2.002-1.132 0-2.031.9-2.002 2.002 0 1.103.9 2.002 2.002 2.002 1.102 0 2.002-.9 2.002-2.002z" fill="#fff"/><path d="M10.79 13.13a9.17 9.17 0 01-2.815 1.16l2.756 2.67c.551.55.551 1.45 0 2.002a1.418 1.418 0 01-2.002 0l-2.669-2.67-2.67 2.67c-.29.26-.638.406-1.015.406-.377 0-.725-.116-1.015-.406a1.418 1.418 0 010-2.002l2.698-2.699a9.166 9.166 0 01-2.814-1.16c-.668-.406-.87-1.277-.493-1.944a1.445 1.445 0 011.972-.435 6.16 6.16 0 006.528 0 1.413 1.413 0 011.973.435 1.414 1.414 0 01-.435 1.973z" fill="#fff"/></svg><svg fill="none" viewBox="0 0 22 14" id="vk" xmlns="http://www.w3.org/2000/svg"><path d="M11.978 14C4.462 14 .176 8.754 0 .011h3.78c.121 6.412 2.89 9.124 5.088 9.685V.01h3.55v5.526c2.164-.235 4.45-2.757 5.22-5.537h3.538a10.792 10.792 0 01-1.693 4.003 10.558 10.558 0 01-3.12 2.98 10.887 10.887 0 013.556 2.892A11.145 11.145 0 0122 14h-3.901c-.835-2.656-2.923-4.719-5.681-5v5h-.44z" fill="#fff"/></svg></svg>